<svg width="135" height="29" viewBox="0 0 135 29" fill="none" xmlns="http://www.w3.org/2000/svg">
<path d="M126.19 28.6667C125.153 28.6667 123.857 27.5929 123.857 26.408C123.857 25.149 126.042 23.853 127.56 22.8162C129.781 21.2981 128.93 20.8167 127.152 19.4837C125.819 18.5209 124.338 17.5582 124.338 15.0402C124.338 11.5966 127.819 6.0423 131.596 6.0423C132.966 6.0423 134.299 7.11613 134.299 8.59727C134.299 10.5968 129.3 11.9669 129.3 15.2994C129.3 16.8546 133.855 19.4466 133.855 22.483C133.855 25.7785 129.152 28.6667 126.19 28.6667Z" fill="white"/>
<path d="M114.338 22.0016C117.67 22.0016 118.114 15.4105 120.521 15.4105C121.891 15.4105 122.632 16.9287 122.632 18.2247C122.632 22.2608 118.559 26.8523 114.412 26.8523C109.783 26.8523 107.265 21.7424 107.265 17.6693C107.265 12.3742 110.894 3.89466 117.189 3.89466C120.262 3.89466 122.817 6.33854 122.817 9.41191C122.817 10.5968 122.188 12.6334 120.818 12.6334C118.559 12.6334 119.929 9.18974 117.448 9.18974C113.079 9.18974 109.857 22.0016 114.338 22.0016Z" fill="white"/>
<path d="M99.2381 12.8926C99.5714 10.1895 105.348 9.07865 104.755 13.2999C104.459 16.003 104.348 19.8169 104.459 22.0757C104.644 24.8528 103.941 25.149 102.386 25.2971C101.238 25.4453 100.127 24.2233 99.7195 22.557C98.8308 19.5207 98.7197 14.5218 99.2381 12.8926ZM102.163 9.00459C100.719 8.93053 99.7195 7.74562 99.8306 6.15339C100.016 4.48711 101.127 3.26517 102.645 3.41328C104.089 3.59843 105.311 4.74631 105.126 6.37556C104.978 7.96779 103.57 9.15271 102.163 9.00459Z" fill="white"/>
<path d="M87.0779 18.0396C85.5597 17.8914 81.8568 18.1506 81.8568 15.8549C81.8568 13.6332 84.2267 13.8924 85.7078 13.8924H87.1519C87.7073 10.9301 89.5217 0.265869 93.3727 0.265869C94.6317 0.265869 95.8166 1.3397 95.8166 2.59866C95.8166 3.70952 93.3727 11.6336 92.9654 13.5961C94.2244 13.5961 97.3718 13.2999 97.3718 15.2994C97.3718 17.2249 93.8171 17.1509 92.3729 17.336C92.2248 18.0025 92.1508 18.632 92.1508 19.2615C92.1508 20.9648 92.7062 24.7417 93.8911 25.9637C94.2244 26.2599 94.4836 26.6302 94.4836 27.1115C94.4836 28.4075 93.1505 29 92.0767 29C87.5592 29 87.3 21.187 87.0779 18.0396Z" fill="white"/>
<path d="M73.4136 20.0021C73.858 23.0755 77.2646 20.2613 78.6346 18.6691C79.4493 17.6693 80.6342 16.7066 81.671 17.7434C82.2634 18.2618 82.4856 19.1875 82.1153 20.0761C81.634 21.15 80.6712 22.5941 79.2271 23.742C74.5245 27.5559 68.7851 25.6675 68.6369 19.2986C68.5999 17.225 68.9702 15.1143 69.5256 13.6332C70.2292 11.7447 71.34 10.1155 73.0804 9.18976C76.524 7.33834 80.375 8.85651 80.375 12.9296C80.375 16.7806 76.5981 18.8912 73.4136 20.0021ZM74.2653 16.2622C75.2651 15.8179 76.8203 14.5219 76.8203 13.337C76.8203 13.0407 76.524 12.7075 76.1908 12.7075C75.1169 12.7075 74.3023 15.4846 74.2653 16.2622Z" fill="white"/>
<path d="M63.0128 3.9317C64.0866 1.52484 67.7895 1.8581 67.2711 5.2277C65.901 13.8183 66.0121 19.891 66.4194 25.2231C66.4935 26.2599 65.9751 27.0745 64.7161 27.1856C58.3102 27.741 61.8279 6.70884 63.0128 3.9317Z" fill="white"/>
<path d="M54.1263 8.33808H54.3115C54.6817 6.1534 55.9777 0.302893 58.977 0.00666432C60.8655 -0.104422 61.3469 1.19158 61.0877 2.5246C60.162 6.59774 57.4218 16.7806 58.1994 22.1868C58.5697 24.7788 59.9028 24.2974 60.0138 25.5193C60.1249 26.2969 59.3844 27.0005 58.4957 27.1115C56.0148 27.3337 55.052 24.8898 54.2374 23.2976C53.2747 24.1863 52.5341 25.038 51.0159 25.1861C47.3501 25.5564 45.7579 21.1129 45.4987 18.558C45.0173 14.707 46.6466 8.59728 51.7935 8.07888C52.6452 8.00483 53.3117 8.15294 54.1263 8.33808ZM53.0155 12.3742C50.4605 12.6334 50.1643 18.0766 50.3124 19.6688C50.4235 20.2613 50.7197 21.7424 51.6454 21.6313C53.5339 21.4832 55.6075 13.0037 53.0155 12.3742Z" fill="white"/>
<path d="M32.6968 24.8158C31.8081 24.8158 30.9194 24.2233 30.9194 23.2606C30.9194 21.8905 31.0675 20.5205 31.2157 19.1875C31.2897 18.3358 31.4378 14.4108 31.1416 12.3002C30.8454 10.0784 34.5482 7.93078 35.0666 11.2263C35.1777 12.041 35.1777 12.9667 35.2888 13.5221C36.2886 12.3002 38.2141 9.67113 39.9174 9.67113C41.4726 9.67113 42.7315 10.3747 43.2129 12.0039C44.1016 15.0032 43.2129 20.0391 43.2129 21.8535C43.2129 23.1125 43.6202 23.6309 43.6202 24.5936C43.6202 25.7785 42.5094 26.408 41.4726 26.408C39.2509 26.408 38.3251 24.5196 38.3251 21.224C38.3251 20.3353 38.4362 19.1875 38.5843 18.0766C39.0287 14.6329 38.6214 13.448 37.7327 14.67C36.3256 16.6695 35.511 19.2245 35.1407 21.5943C34.8445 23.4087 34.289 24.8158 32.6968 24.8158Z" fill="white"/>
<path d="M23.2997 12.8926C23.6329 10.1895 29.4094 9.07865 28.8169 13.2999C28.5207 16.003 28.4096 19.8169 28.5207 22.0757C28.7059 24.8528 28.0023 25.149 26.4471 25.2971C25.2992 25.4453 24.1884 24.2233 23.7811 22.557C22.8924 19.5207 22.7813 14.5218 23.2997 12.8926ZM26.2249 9.00459C24.7808 8.93053 23.7811 7.74562 23.8921 6.15339C24.0773 4.48711 25.1881 3.26517 26.7063 3.41328C28.1504 3.59843 29.3724 4.74631 29.1872 6.37556C29.0391 7.96779 27.632 9.15271 26.2249 9.00459Z" fill="white"/>
<path d="M6.07268 11.9299H6.18376C6.92433 11.0412 8.03519 9.33787 9.33119 9.33787C11.5159 9.33787 11.5159 12.7075 11.664 14.1516L11.7751 14.2256C13.1822 12.115 16.1444 6.7829 19.0327 6.7829C20.4397 6.7829 21.4025 8.26404 21.4025 9.59707C21.4025 13.0778 20.6619 16.4473 20.6619 19.891C20.6619 21.5573 21.6247 23.2236 21.6247 24.7417C21.6247 26.408 20.2916 27.2227 18.8105 27.2227C15.8852 27.2227 15.1076 24.2974 15.1076 21.8165C15.1076 18.4469 16.1444 15.3365 16.5147 12.041C15.4409 13.448 12.0713 19.8169 10.7753 19.8169C9.36822 19.8169 8.9609 17.6693 8.81279 15.7068C8.62765 12.8186 7.99816 12.152 6.62811 15.2995C5.55428 17.8915 5.22102 21.9276 4.03611 25.1861C3.77691 25.9267 3.03634 26.5191 2.18468 26.5191C0.518399 26.5191 0 25.2231 0 23.742C0 22.2238 0.370285 20.5575 0.555428 19.0764C0.962742 15.4846 0.888685 12.1891 0.888685 8.70838C0.888685 7.0421 1.88845 5.67204 3.55474 5.67204C6.96136 5.67204 6.29485 9.67113 6.07268 11.9299Z" fill="white"/>
<path d="M24.8458 5.86334C24.8458 7.01367 25.654 7.9462 26.651 7.9462C27.6479 7.9462 28.4561 7.01367 28.4561 5.86334C28.4561 4.71301 27.6479 3.78049 26.651 3.78049C25.654 3.78049 24.8458 4.71301 24.8458 5.86334Z" fill="black"/>
<path d="M100.755 5.86334C100.755 7.01367 101.563 7.9462 102.56 7.9462C103.557 7.9462 104.365 7.01367 104.365 5.86334C104.365 4.71301 103.557 3.78049 102.56 3.78049C101.563 3.78049 100.755 4.71301 100.755 5.86334Z" fill="black"/>
<path d="M26.6975 5.16905C26.6975 4.91342 26.9047 4.7062 27.1604 4.7062C27.416 4.7062 27.6232 4.91342 27.6232 5.16905C27.6232 5.42468 27.416 5.63191 27.1604 5.63191V5.72448C27.4671 5.72448 27.7158 5.47581 27.7158 5.16905C27.7158 4.8623 27.4671 4.61362 27.1604 4.61362C26.8536 4.61362 26.6049 4.8623 26.6049 5.16905C26.6049 5.47581 26.8536 5.72448 27.1604 5.72448V5.63191C26.9047 5.63191 26.6975 5.42468 26.6975 5.16905Z" fill="white"/>
<path d="M102.606 5.16905C102.606 4.91342 102.813 4.7062 103.069 4.7062C103.324 4.7062 103.532 4.91342 103.532 5.16905C103.532 5.42468 103.324 5.63191 103.069 5.63191V5.72448C103.375 5.72448 103.624 5.47581 103.624 5.16905C103.624 4.8623 103.375 4.61362 103.069 4.61362C102.762 4.61362 102.513 4.8623 102.513 5.16905C102.513 5.47581 102.762 5.72448 103.069 5.72448V5.63191C102.813 5.63191 102.606 5.42468 102.606 5.16905Z" fill="white"/>
</svg>
