<svg width="393" height="199" viewBox="0 0 393 199" fill="none" xmlns="http://www.w3.org/2000/svg">
<rect width="393" height="199" fill="#A874D2"/>
<path d="M290.499 69.641C288.848 69.641 286.785 67.9313 286.785 66.0448C286.785 64.0404 290.263 61.977 292.68 60.3263C296.218 57.9092 294.862 57.1428 292.032 55.0204C289.91 53.4876 287.551 51.9548 287.551 47.9459C287.551 42.4632 293.093 33.6201 299.106 33.6201C301.288 33.6201 303.41 35.3298 303.41 37.6879C303.41 40.8715 295.451 43.0528 295.451 48.3586C295.451 50.8347 302.703 54.9615 302.703 59.7957C302.703 65.0426 295.215 69.641 290.499 69.641Z" fill="white"/>
<path d="M271.63 59.0293C276.935 59.0293 277.643 48.5355 281.475 48.5355C283.656 48.5355 284.835 50.9526 284.835 53.016C284.835 59.442 278.35 66.7523 271.748 66.7523C264.378 66.7523 260.369 58.6166 260.369 52.1317C260.369 43.7013 266.147 30.2008 276.169 30.2008C281.062 30.2008 285.13 34.0918 285.13 38.9849C285.13 40.8715 284.128 44.1139 281.947 44.1139C278.35 44.1139 280.532 38.6312 276.582 38.6312C269.625 38.6312 264.496 59.0293 271.63 59.0293Z" fill="white"/>
<path d="M247.589 44.5266C248.12 40.223 257.317 38.4544 256.374 45.1751C255.902 49.4787 255.725 55.551 255.902 59.1472C256.197 63.5687 255.077 64.0404 252.601 64.2762C250.773 64.512 249.004 62.5665 248.356 59.9136C246.941 55.0794 246.764 47.1206 247.589 44.5266ZM252.247 38.3364C249.948 38.2185 248.356 36.332 248.533 33.797C248.828 31.1441 250.596 29.1986 253.013 29.4344C255.312 29.7292 257.258 31.5567 256.963 34.1507C256.727 36.6857 254.487 38.5723 252.247 38.3364Z" fill="white"/>
<path d="M228.229 52.7212C225.811 52.4854 219.916 52.8981 219.916 49.243C219.916 45.7057 223.689 46.1184 226.047 46.1184H228.346C229.231 41.4021 232.12 24.4233 238.251 24.4233C240.255 24.4233 242.142 26.133 242.142 28.1374C242.142 29.9061 238.251 42.5222 237.602 45.6468C239.607 45.6468 244.618 45.1751 244.618 48.3586C244.618 51.4243 238.958 51.3063 236.659 51.6011C236.423 52.6623 236.305 53.6645 236.305 54.6667C236.305 57.3786 237.19 63.3919 239.076 65.3374C239.607 65.809 240.019 66.3986 240.019 67.165C240.019 69.2284 237.897 70.1716 236.187 70.1716C228.995 70.1716 228.582 57.7323 228.229 52.7212Z" fill="white"/>
<path d="M206.474 55.8458C207.181 60.739 212.605 56.2585 214.786 53.7234C216.083 52.1317 217.97 50.5989 219.621 52.2496C220.564 53.0749 220.918 54.5488 220.328 55.9637C219.562 57.6734 218.029 59.9726 215.73 61.8001C208.242 67.8724 199.105 64.8657 198.869 54.7257C198.81 51.4242 199.399 48.0639 200.284 45.7057C201.404 42.699 203.172 40.1051 205.943 38.6312C211.426 35.6835 217.557 38.1006 217.557 44.5856C217.557 50.7168 211.544 54.0772 206.474 55.8458ZM207.83 49.8914C209.422 49.184 211.898 47.1206 211.898 45.2341C211.898 44.7624 211.426 44.2318 210.895 44.2318C209.186 44.2318 207.889 48.6534 207.83 49.8914Z" fill="white"/>
<path d="M189.914 30.2598C191.624 26.4278 197.519 26.9584 196.694 32.3232C194.513 46.0005 194.689 55.669 195.338 64.1583C195.456 65.809 194.63 67.106 192.626 67.2829C182.427 68.1672 188.028 34.6813 189.914 30.2598Z" fill="white"/>
<path d="M175.766 37.2753H176.061C176.65 33.797 178.714 24.4822 183.489 24.0106C186.495 23.8337 187.262 25.8971 186.849 28.0195C185.375 34.5044 181.013 50.7168 182.251 59.324C182.84 63.4508 184.963 62.6844 185.14 64.6299C185.316 65.8679 184.137 66.9881 182.722 67.1649C178.772 67.5186 177.24 63.6277 175.943 61.0927C174.41 62.5076 173.231 63.8635 170.814 64.0993C164.977 64.6889 162.442 57.6144 162.03 53.5465C161.263 47.4153 163.857 37.6879 172.052 36.8626C173.408 36.7447 174.469 36.9805 175.766 37.2753ZM173.997 43.7012C169.929 44.1139 169.458 52.7801 169.694 55.3152C169.87 56.2584 170.342 58.6166 171.816 58.4397C174.823 58.2039 178.124 44.7035 173.997 43.7012Z" fill="white"/>
<path d="M141.647 63.5099C140.232 63.5099 138.817 62.5666 138.817 61.0338C138.817 58.8525 139.053 56.6712 139.289 54.5488C139.407 53.1929 139.642 46.9438 139.171 43.5834C138.699 40.0462 144.594 36.6268 145.42 41.8737C145.597 43.1707 145.597 44.6446 145.774 45.5289C147.365 43.5834 150.431 39.3977 153.143 39.3977C155.619 39.3977 157.623 40.5178 158.39 43.1118C159.805 47.887 158.39 55.9048 158.39 58.7935C158.39 60.798 159.038 61.6233 159.038 63.1561C159.038 65.0427 157.27 66.0449 155.619 66.0449C152.082 66.0449 150.608 63.0382 150.608 57.7913C150.608 56.3764 150.785 54.5488 151.02 52.7802C151.728 47.2975 151.079 45.411 149.665 47.3565C147.424 50.54 146.127 54.6078 145.538 58.3809C145.066 61.2696 144.182 63.5099 141.647 63.5099Z" fill="white"/>
<path d="M126.686 44.5266C127.216 40.223 136.413 38.4544 135.47 45.1751C134.998 49.4787 134.821 55.551 134.998 59.1472C135.293 63.5687 134.173 64.0404 131.697 64.2762C129.869 64.512 128.101 62.5665 127.452 59.9136C126.037 55.0794 125.86 47.1206 126.686 44.5266ZM131.343 38.3364C129.044 38.2185 127.452 36.332 127.629 33.797C127.924 31.1441 129.692 29.1986 132.109 29.4344C134.409 29.7292 136.354 31.5567 136.059 34.1507C135.824 36.6857 133.583 38.5723 131.343 38.3364Z" fill="white"/>
<path d="M99.2583 42.9939H99.4352C100.614 41.579 102.383 38.8671 104.446 38.8671C107.925 38.8671 107.925 44.2319 108.16 46.5311L108.337 46.649C110.577 43.2886 115.294 34.7993 119.892 34.7993C122.132 34.7993 123.665 37.1574 123.665 39.2798C123.665 44.8214 122.486 50.1862 122.486 55.669C122.486 58.3219 124.019 60.9748 124.019 63.3919C124.019 66.0449 121.897 67.3419 119.538 67.3419C114.881 67.3419 113.643 62.6845 113.643 58.7346C113.643 53.3698 115.294 48.4176 115.883 43.1707C114.174 45.411 108.809 55.5511 106.745 55.5511C104.505 55.5511 103.857 52.1317 103.621 49.0072C103.326 44.4088 102.324 43.3476 100.143 48.3587C98.4329 52.4855 97.9024 58.9114 96.0158 64.0994C95.6031 65.2785 94.4241 66.2217 93.0681 66.2217C90.4152 66.2217 89.5898 64.1583 89.5898 61.8002C89.5898 59.3831 90.1794 56.7301 90.4742 54.372C91.1226 48.6534 91.0047 43.4065 91.0047 37.8649C91.0047 35.2119 92.5965 33.0306 95.2494 33.0306C100.673 33.0306 99.612 39.3977 99.2583 42.9939Z" fill="white"/>
<path d="M129.148 33.9591C129.148 35.7906 130.435 37.2753 132.022 37.2753C133.609 37.2753 134.896 35.7906 134.896 33.9591C134.896 32.1276 133.609 30.6429 132.022 30.6429C130.435 30.6429 129.148 32.1276 129.148 33.9591Z" fill="black"/>
<path d="M129.295 33.9591C129.295 32.1885 130.535 30.7903 132.022 30.7903C133.509 30.7903 134.748 32.1885 134.748 33.9591C134.748 35.7297 133.509 37.1279 132.022 37.1279V37.2753C133.609 37.2753 134.896 35.7906 134.896 33.9591C134.896 32.1276 133.609 30.6429 132.022 30.6429C130.435 30.6429 129.148 32.1276 129.148 33.9591C129.148 35.7906 130.435 37.2753 132.022 37.2753V37.1279C130.535 37.1279 129.295 35.7297 129.295 33.9591Z" fill="white"/>
<path d="M250.004 33.9591C250.004 35.7906 251.29 37.2753 252.878 37.2753C254.465 37.2753 255.752 35.7906 255.752 33.9591C255.752 32.1276 254.465 30.6429 252.878 30.6429C251.29 30.6429 250.004 32.1276 250.004 33.9591Z" fill="black"/>
<path d="M250.151 33.9591C250.151 32.1885 251.391 30.7903 252.878 30.7903C254.364 30.7903 255.604 32.1885 255.604 33.9591C255.604 35.7297 254.364 37.1279 252.878 37.1279V37.2753C254.465 37.2753 255.752 35.7906 255.752 33.9591C255.752 32.1276 254.465 30.6429 252.878 30.6429C251.29 30.6429 250.004 32.1276 250.004 33.9591C250.004 35.7906 251.29 37.2753 252.878 37.2753V37.1279C251.391 37.1279 250.151 35.7297 250.151 33.9591Z" fill="white"/>
<path d="M131.948 32.8537C131.948 33.3421 132.344 33.738 132.832 33.738C133.32 33.738 133.716 33.3421 133.716 32.8537C133.716 32.3653 133.32 31.9694 132.832 31.9694C132.344 31.9694 131.948 32.3653 131.948 32.8537Z" fill="white"/>
<path d="M132.095 32.8537C132.095 32.4467 132.425 32.1167 132.832 32.1167C133.239 32.1167 133.569 32.4467 133.569 32.8537C133.569 33.2607 133.239 33.5906 132.832 33.5906V33.738C133.32 33.738 133.716 33.3421 133.716 32.8537C133.716 32.3653 133.32 31.9694 132.832 31.9694C132.344 31.9694 131.948 32.3653 131.948 32.8537C131.948 33.3421 132.344 33.738 132.832 33.738V33.5906C132.425 33.5906 132.095 33.2607 132.095 32.8537Z" fill="white"/>
<path d="M252.804 32.8537C252.804 33.3421 253.2 33.738 253.688 33.738C254.176 33.738 254.572 33.3421 254.572 32.8537C254.572 32.3653 254.176 31.9694 253.688 31.9694C253.2 31.9694 252.804 32.3653 252.804 32.8537Z" fill="white"/>
<path d="M252.951 32.8537C252.951 32.4467 253.281 32.1167 253.688 32.1167C254.095 32.1167 254.425 32.4467 254.425 32.8537C254.425 33.2607 254.095 33.5906 253.688 33.5906V33.738C254.176 33.738 254.572 33.3421 254.572 32.8537C254.572 32.3653 254.176 31.9694 253.688 31.9694C253.2 31.9694 252.804 32.3653 252.804 32.8537C252.804 33.3421 253.2 33.738 253.688 33.738V33.5906C253.281 33.5906 252.951 33.2607 252.951 32.8537Z" fill="white"/>
<path d="M106.312 107.189H94.645C92.355 107.189 90.5 109.024 90.5 111.288V117.056C90.5 119.32 92.356 121.156 94.645 121.156H106.312C108.602 121.156 110.457 119.32 110.457 117.056V111.288C110.457 109.024 108.601 107.188 106.312 107.188V107.189ZM103.509 114.452L98.052 117.027C98.0187 117.043 97.9819 117.05 97.945 117.048C97.9081 117.046 97.8724 117.035 97.841 117.015C97.8097 116.996 97.7838 116.968 97.7658 116.936C97.7478 116.904 97.7382 116.868 97.738 116.831V111.522C97.7387 111.484 97.7487 111.448 97.7672 111.416C97.7857 111.384 97.8121 111.357 97.8438 111.337C97.8756 111.318 97.9117 111.307 97.9488 111.306C97.9859 111.304 98.0228 111.312 98.056 111.329L103.514 114.064C103.55 114.082 103.581 114.11 103.602 114.144C103.623 114.179 103.634 114.219 103.634 114.26C103.633 114.3 103.621 114.34 103.599 114.374C103.577 114.408 103.546 114.435 103.509 114.453V114.452Z" fill="white"/>
<path d="M145.546 108.037V110.785H143.532V114.145H145.546V124.131H149.68V114.146H152.455C152.455 114.146 152.715 112.535 152.841 110.773H149.697V108.475C149.697 108.132 150.147 107.67 150.593 107.67H152.847V104.172H149.783C145.443 104.172 145.546 107.535 145.546 108.037V108.037Z" fill="white"/>
<path d="M206.5 108.079C205.75 108.406 204.956 108.621 204.144 108.716C204.997 108.215 205.638 107.421 205.948 106.482C205.14 106.952 204.259 107.283 203.341 107.462C202.955 107.057 202.49 106.735 201.975 106.516C201.46 106.297 200.906 106.185 200.346 106.187C198.08 106.187 196.243 107.997 196.243 110.227C196.243 110.543 196.279 110.852 196.349 111.147C194.724 111.069 193.132 110.654 191.676 109.927C190.22 109.201 188.932 108.178 187.893 106.926C187.529 107.54 187.337 108.241 187.339 108.956C187.34 109.624 187.507 110.281 187.825 110.868C188.144 111.455 188.604 111.954 189.163 112.319C188.512 112.298 187.876 112.124 187.305 111.812V111.862C187.305 113.82 188.72 115.453 190.595 115.825C190.243 115.918 189.88 115.966 189.515 115.966C189.25 115.966 188.993 115.941 188.742 115.891C189.01 116.699 189.523 117.403 190.21 117.906C190.897 118.409 191.723 118.686 192.574 118.698C191.114 119.822 189.322 120.43 187.479 120.425C187.147 120.425 186.821 120.405 186.5 120.369C188.381 121.559 190.563 122.19 192.789 122.187C200.336 122.187 204.462 116.03 204.462 110.691L204.448 110.168C205.253 109.601 205.948 108.894 206.5 108.079V108.079Z" fill="white"/>
<path d="M248.517 104.172H240.447C238.87 104.173 237.358 104.801 236.244 105.916C235.129 107.031 234.502 108.543 234.5 110.12V118.19C234.502 119.766 235.129 121.278 236.244 122.393C237.359 123.508 238.871 124.135 240.448 124.137H248.518C250.095 124.135 251.607 123.507 252.721 122.392C253.836 121.277 254.463 119.765 254.465 118.189V110.119C254.463 108.542 253.836 107.03 252.721 105.915C251.606 104.8 250.094 104.173 248.517 104.172V104.172ZM252.457 118.189C252.457 118.706 252.355 119.218 252.157 119.696C251.959 120.174 251.669 120.609 251.303 120.975C250.937 121.34 250.503 121.631 250.025 121.829C249.547 122.027 249.034 122.129 248.517 122.129H240.447C239.402 122.128 238.4 121.713 237.662 120.974C236.923 120.235 236.508 119.233 236.508 118.189V110.119C236.508 109.074 236.923 108.072 237.662 107.333C238.401 106.595 239.403 106.18 240.448 106.18H248.518C249.563 106.18 250.565 106.595 251.303 107.334C252.042 108.073 252.457 109.075 252.457 110.12V118.19V118.189Z" fill="white"/>
<path d="M244.482 108.991C243.113 108.993 241.802 109.537 240.834 110.505C239.866 111.473 239.322 112.785 239.32 114.154C239.322 115.523 239.866 116.835 240.834 117.803C241.802 118.771 243.114 119.316 244.483 119.318C245.852 119.316 247.165 118.771 248.133 117.803C249.101 116.835 249.645 115.523 249.647 114.154C249.645 112.785 249.1 111.472 248.132 110.505C247.163 109.537 245.851 108.993 244.482 108.992V108.991ZM244.482 117.31C243.645 117.31 242.843 116.977 242.251 116.386C241.659 115.794 241.327 114.991 241.327 114.155C241.327 113.318 241.659 112.515 242.251 111.924C242.843 111.332 243.645 111 244.482 111C245.319 111 246.121 111.332 246.713 111.924C247.305 112.515 247.637 113.318 247.637 114.155C247.637 114.991 247.305 115.794 246.713 116.386C246.121 116.977 245.319 117.31 244.482 117.31V117.31Z" fill="white"/>
<path d="M249.656 110.267C250.339 110.267 250.893 109.713 250.893 109.03C250.893 108.346 250.339 107.793 249.656 107.793C248.973 107.793 248.419 108.346 248.419 109.03C248.419 109.713 248.973 110.267 249.656 110.267Z" fill="white"/>
<path d="M302.459 115.891V123.27H298.181V116.385C298.181 114.655 297.562 113.475 296.014 113.475C294.832 113.475 294.128 114.271 293.819 115.04C293.706 115.315 293.677 115.698 293.677 116.083V123.27H289.397C289.397 123.27 289.455 111.61 289.397 110.401H293.677V112.225L293.649 112.267H293.677V112.225C294.245 111.35 295.26 110.099 297.533 110.099C300.348 110.099 302.459 111.939 302.459 115.891V115.891ZM284.921 104.198C283.458 104.198 282.5 105.158 282.5 106.421C282.5 107.656 283.43 108.645 284.865 108.645H284.893C286.386 108.645 287.313 107.656 287.313 106.421C287.287 105.158 286.387 104.198 284.922 104.198H284.921ZM282.754 123.27H287.032V110.401H282.754V123.27Z" fill="white"/>
<path d="M95.6309 162.64H96.7266L99.5215 169.595L102.311 162.64H103.412L99.9434 171.172H99.0879L95.6309 162.64ZM95.2734 162.64H96.2402L96.3984 167.844V171.172H95.2734V162.64ZM102.797 162.64H103.764V171.172H102.639V167.844L102.797 162.64ZM106.764 164.832V171.172H105.674V164.832H106.764ZM105.592 163.15C105.592 162.974 105.645 162.826 105.75 162.705C105.859 162.584 106.02 162.523 106.23 162.523C106.438 162.523 106.596 162.584 106.705 162.705C106.818 162.826 106.875 162.974 106.875 163.15C106.875 163.318 106.818 163.463 106.705 163.584C106.596 163.701 106.438 163.76 106.23 163.76C106.02 163.76 105.859 163.701 105.75 163.584C105.645 163.463 105.592 163.318 105.592 163.15ZM109.588 166.185V171.172H108.504V164.832H109.529L109.588 166.185ZM109.33 167.761L108.879 167.744C108.883 167.31 108.947 166.91 109.072 166.543C109.197 166.172 109.373 165.849 109.6 165.576C109.826 165.302 110.096 165.092 110.408 164.943C110.725 164.791 111.074 164.715 111.457 164.715C111.77 164.715 112.051 164.758 112.301 164.844C112.551 164.926 112.764 165.058 112.939 165.242C113.119 165.426 113.256 165.664 113.35 165.957C113.443 166.246 113.49 166.599 113.49 167.017V171.172H112.4V167.006C112.4 166.674 112.352 166.408 112.254 166.209C112.156 166.006 112.014 165.859 111.826 165.769C111.639 165.676 111.408 165.629 111.135 165.629C110.865 165.629 110.619 165.685 110.396 165.799C110.178 165.912 109.988 166.068 109.828 166.267C109.672 166.467 109.549 166.695 109.459 166.953C109.373 167.207 109.33 167.476 109.33 167.761ZM119.133 169.941V162.172H120.223V171.172H119.227L119.133 169.941ZM114.867 168.072V167.949C114.867 167.465 114.926 167.025 115.043 166.631C115.164 166.232 115.334 165.89 115.553 165.605C115.775 165.32 116.039 165.101 116.344 164.949C116.652 164.793 116.996 164.715 117.375 164.715C117.773 164.715 118.121 164.785 118.418 164.926C118.719 165.062 118.973 165.263 119.18 165.529C119.391 165.791 119.557 166.107 119.678 166.478C119.799 166.849 119.883 167.269 119.93 167.738V168.277C119.887 168.742 119.803 169.16 119.678 169.531C119.557 169.902 119.391 170.219 119.18 170.48C118.973 170.742 118.719 170.943 118.418 171.084C118.117 171.22 117.766 171.289 117.363 171.289C116.992 171.289 116.652 171.209 116.344 171.049C116.039 170.888 115.775 170.664 115.553 170.375C115.334 170.086 115.164 169.746 115.043 169.355C114.926 168.961 114.867 168.533 114.867 168.072ZM115.957 167.949V168.072C115.957 168.388 115.988 168.685 116.051 168.963C116.117 169.24 116.219 169.484 116.355 169.695C116.492 169.906 116.666 170.072 116.877 170.193C117.088 170.31 117.34 170.369 117.633 170.369C117.992 170.369 118.287 170.293 118.518 170.14C118.752 169.988 118.939 169.787 119.08 169.537C119.221 169.287 119.33 169.015 119.408 168.722V167.31C119.361 167.095 119.293 166.888 119.203 166.689C119.117 166.486 119.004 166.306 118.863 166.15C118.727 165.99 118.557 165.863 118.354 165.769C118.154 165.676 117.918 165.629 117.645 165.629C117.348 165.629 117.092 165.691 116.877 165.816C116.666 165.937 116.492 166.105 116.355 166.32C116.219 166.531 116.117 166.777 116.051 167.058C115.988 167.336 115.957 167.633 115.957 167.949ZM123.088 162.172V171.172H121.998V162.172H123.088ZM127.459 171.289C127.018 171.289 126.617 171.215 126.258 171.066C125.902 170.914 125.596 170.701 125.338 170.427C125.084 170.154 124.889 169.83 124.752 169.455C124.615 169.08 124.547 168.67 124.547 168.224V167.978C124.547 167.463 124.623 167.004 124.775 166.601C124.928 166.195 125.135 165.851 125.396 165.57C125.658 165.289 125.955 165.076 126.287 164.931C126.619 164.787 126.963 164.715 127.318 164.715C127.771 164.715 128.162 164.793 128.49 164.949C128.822 165.105 129.094 165.324 129.305 165.605C129.516 165.883 129.672 166.211 129.773 166.59C129.875 166.965 129.926 167.375 129.926 167.82V168.306H125.191V167.422H128.842V167.34C128.826 167.058 128.768 166.785 128.666 166.519C128.568 166.254 128.412 166.035 128.197 165.863C127.982 165.691 127.689 165.605 127.318 165.605C127.072 165.605 126.846 165.658 126.639 165.763C126.432 165.865 126.254 166.017 126.105 166.22C125.957 166.424 125.842 166.672 125.76 166.965C125.678 167.258 125.637 167.595 125.637 167.978V168.224C125.637 168.525 125.678 168.808 125.76 169.074C125.846 169.336 125.969 169.566 126.129 169.765C126.293 169.965 126.49 170.121 126.721 170.234C126.955 170.347 127.221 170.404 127.518 170.404C127.9 170.404 128.225 170.326 128.49 170.17C128.756 170.013 128.988 169.804 129.188 169.543L129.844 170.064C129.707 170.271 129.533 170.469 129.322 170.656C129.111 170.844 128.852 170.996 128.543 171.113C128.238 171.23 127.877 171.289 127.459 171.289ZM133.846 164.832V165.664H130.418V164.832H133.846ZM131.578 163.291H132.662V169.601C132.662 169.816 132.695 169.978 132.762 170.088C132.828 170.197 132.914 170.269 133.02 170.304C133.125 170.34 133.238 170.357 133.359 170.357C133.449 170.357 133.543 170.349 133.641 170.334C133.742 170.314 133.818 170.299 133.869 170.287L133.875 171.172C133.789 171.199 133.676 171.224 133.535 171.248C133.398 171.275 133.232 171.289 133.037 171.289C132.771 171.289 132.527 171.236 132.305 171.131C132.082 171.025 131.904 170.849 131.771 170.603C131.643 170.353 131.578 170.017 131.578 169.595V163.291ZM136.295 164.832V171.172H135.205V164.832H136.295ZM135.123 163.15C135.123 162.974 135.176 162.826 135.281 162.705C135.391 162.584 135.551 162.523 135.762 162.523C135.969 162.523 136.127 162.584 136.236 162.705C136.35 162.826 136.406 162.974 136.406 163.15C136.406 163.318 136.35 163.463 136.236 163.584C136.127 163.701 135.969 163.76 135.762 163.76C135.551 163.76 135.391 163.701 135.281 163.584C135.176 163.463 135.123 163.318 135.123 163.15ZM140.572 170.398C140.83 170.398 141.068 170.345 141.287 170.24C141.506 170.135 141.686 169.99 141.826 169.806C141.967 169.619 142.047 169.406 142.066 169.168H143.098C143.078 169.543 142.951 169.892 142.717 170.217C142.486 170.537 142.184 170.797 141.809 170.996C141.434 171.191 141.021 171.289 140.572 171.289C140.096 171.289 139.68 171.205 139.324 171.037C138.973 170.869 138.68 170.638 138.445 170.345C138.215 170.052 138.041 169.717 137.924 169.338C137.811 168.955 137.754 168.551 137.754 168.125V167.879C137.754 167.453 137.811 167.051 137.924 166.672C138.041 166.289 138.215 165.951 138.445 165.658C138.68 165.365 138.973 165.135 139.324 164.967C139.68 164.799 140.096 164.715 140.572 164.715C141.068 164.715 141.502 164.816 141.873 165.019C142.244 165.219 142.535 165.492 142.746 165.84C142.961 166.183 143.078 166.574 143.098 167.011H142.066C142.047 166.75 141.973 166.513 141.844 166.302C141.719 166.092 141.547 165.924 141.328 165.799C141.113 165.67 140.861 165.605 140.572 165.605C140.24 165.605 139.961 165.672 139.734 165.804C139.512 165.933 139.334 166.109 139.201 166.332C139.072 166.551 138.979 166.795 138.92 167.064C138.865 167.33 138.838 167.601 138.838 167.879V168.125C138.838 168.402 138.865 168.676 138.92 168.945C138.975 169.215 139.066 169.459 139.195 169.677C139.328 169.896 139.506 170.072 139.729 170.205C139.955 170.334 140.236 170.398 140.572 170.398ZM148.008 169.49C148.008 169.334 147.973 169.189 147.902 169.056C147.836 168.92 147.697 168.797 147.486 168.687C147.279 168.574 146.967 168.476 146.549 168.394C146.197 168.32 145.879 168.232 145.594 168.131C145.312 168.029 145.072 167.906 144.873 167.761C144.678 167.617 144.527 167.447 144.422 167.252C144.316 167.056 144.264 166.828 144.264 166.566C144.264 166.316 144.318 166.08 144.428 165.857C144.541 165.635 144.699 165.437 144.902 165.265C145.109 165.094 145.357 164.959 145.646 164.861C145.936 164.763 146.258 164.715 146.613 164.715C147.121 164.715 147.555 164.804 147.914 164.984C148.273 165.164 148.549 165.404 148.74 165.705C148.932 166.002 149.027 166.332 149.027 166.695H147.943C147.943 166.519 147.891 166.349 147.785 166.185C147.684 166.017 147.533 165.879 147.334 165.769C147.139 165.66 146.898 165.605 146.613 165.605C146.312 165.605 146.068 165.652 145.881 165.746C145.697 165.836 145.562 165.951 145.477 166.092C145.395 166.232 145.354 166.381 145.354 166.537C145.354 166.654 145.373 166.76 145.412 166.853C145.455 166.943 145.529 167.027 145.635 167.105C145.74 167.179 145.889 167.25 146.08 167.316C146.271 167.383 146.516 167.449 146.812 167.515C147.332 167.633 147.76 167.773 148.096 167.937C148.432 168.101 148.682 168.302 148.846 168.541C149.01 168.779 149.092 169.068 149.092 169.408C149.092 169.685 149.033 169.939 148.916 170.17C148.803 170.4 148.637 170.599 148.418 170.767C148.203 170.931 147.945 171.06 147.645 171.154C147.348 171.244 147.014 171.289 146.643 171.289C146.084 171.289 145.611 171.189 145.225 170.99C144.838 170.791 144.545 170.533 144.346 170.217C144.146 169.9 144.047 169.566 144.047 169.215H145.137C145.152 169.511 145.238 169.748 145.395 169.924C145.551 170.095 145.742 170.219 145.969 170.293C146.195 170.363 146.42 170.398 146.643 170.398C146.939 170.398 147.188 170.359 147.387 170.281C147.59 170.203 147.744 170.095 147.85 169.959C147.955 169.822 148.008 169.666 148.008 169.49ZM162.838 168.224C162.822 168.584 162.768 168.945 162.674 169.308C162.58 169.668 162.439 169.998 162.252 170.299C162.064 170.599 161.82 170.842 161.52 171.025C161.223 171.205 160.863 171.295 160.441 171.295C160.172 171.295 159.936 171.248 159.732 171.154C159.533 171.056 159.369 170.918 159.24 170.738C159.115 170.558 159.027 170.342 158.977 170.088C158.93 169.834 158.922 169.551 158.953 169.238L159.252 165.992H160.113L159.814 169.238C159.791 169.523 159.797 169.756 159.832 169.935C159.871 170.115 159.93 170.254 160.008 170.351C160.086 170.445 160.174 170.51 160.271 170.545C160.373 170.58 160.471 170.597 160.564 170.597C160.799 170.597 161.008 170.537 161.191 170.416C161.375 170.291 161.529 170.121 161.654 169.906C161.783 169.687 161.883 169.435 161.953 169.15C162.023 168.861 162.066 168.552 162.082 168.224C162.109 167.642 162.082 167.107 162 166.619C161.922 166.131 161.787 165.697 161.596 165.318C161.408 164.939 161.162 164.619 160.857 164.357C160.553 164.095 160.189 163.896 159.768 163.76C159.346 163.623 158.863 163.554 158.32 163.554C157.828 163.554 157.373 163.631 156.955 163.783C156.541 163.931 156.168 164.146 155.836 164.427C155.508 164.709 155.225 165.047 154.986 165.441C154.752 165.836 154.566 166.281 154.43 166.777C154.297 167.269 154.219 167.801 154.195 168.371C154.168 168.957 154.199 169.496 154.289 169.988C154.379 170.476 154.523 170.912 154.723 171.295C154.926 171.681 155.182 172.008 155.49 172.273C155.799 172.543 156.156 172.746 156.562 172.883C156.969 173.023 157.422 173.094 157.922 173.094C158.266 173.094 158.613 173.052 158.965 172.97C159.32 172.888 159.617 172.777 159.855 172.636L160.078 173.304C159.805 173.48 159.463 173.611 159.053 173.697C158.646 173.783 158.262 173.826 157.898 173.826C157.305 173.826 156.762 173.744 156.27 173.58C155.781 173.42 155.348 173.183 154.969 172.871C154.594 172.562 154.281 172.185 154.031 171.74C153.781 171.299 153.598 170.795 153.48 170.228C153.363 169.662 153.318 169.043 153.346 168.371C153.373 167.73 153.469 167.127 153.633 166.56C153.801 165.994 154.029 165.48 154.318 165.019C154.607 164.558 154.951 164.162 155.35 163.83C155.752 163.494 156.203 163.236 156.703 163.056C157.207 162.877 157.754 162.787 158.344 162.787C158.945 162.787 159.49 162.869 159.979 163.033C160.467 163.197 160.895 163.433 161.262 163.742C161.633 164.051 161.939 164.427 162.182 164.873C162.424 165.318 162.6 165.822 162.709 166.385C162.822 166.947 162.865 167.56 162.838 168.224ZM156.82 168.722C156.793 168.996 156.793 169.24 156.82 169.455C156.848 169.67 156.9 169.851 156.979 170C157.057 170.148 157.158 170.261 157.283 170.34C157.412 170.414 157.562 170.451 157.734 170.451C157.848 170.451 157.967 170.424 158.092 170.369C158.217 170.31 158.34 170.22 158.461 170.099C158.582 169.978 158.695 169.82 158.801 169.625C158.906 169.429 158.994 169.195 159.064 168.922L159.451 169.344C159.361 169.664 159.244 169.945 159.1 170.187C158.959 170.429 158.801 170.633 158.625 170.797C158.449 170.961 158.262 171.086 158.062 171.172C157.867 171.254 157.668 171.295 157.465 171.295C157.18 171.295 156.93 171.234 156.715 171.113C156.5 170.988 156.326 170.812 156.193 170.586C156.061 170.359 155.967 170.09 155.912 169.777C155.861 169.461 155.854 169.109 155.889 168.722C155.924 168.312 155.996 167.933 156.105 167.586C156.215 167.238 156.35 166.927 156.51 166.654C156.674 166.381 156.857 166.148 157.061 165.957C157.268 165.765 157.486 165.621 157.717 165.523C157.947 165.422 158.184 165.371 158.426 165.371C158.848 165.371 159.18 165.433 159.422 165.558C159.664 165.679 159.895 165.824 160.113 165.992L159.615 166.572C159.502 166.463 159.354 166.361 159.17 166.267C158.986 166.174 158.77 166.127 158.52 166.127C158.305 166.127 158.104 166.181 157.916 166.291C157.729 166.4 157.559 166.564 157.406 166.783C157.258 167.002 157.133 167.273 157.031 167.597C156.93 167.918 156.859 168.293 156.82 168.722ZM172.723 170.281V171.172H167.139V170.392L169.934 167.281C170.277 166.898 170.543 166.574 170.73 166.308C170.922 166.039 171.055 165.799 171.129 165.588C171.207 165.373 171.246 165.154 171.246 164.931C171.246 164.65 171.188 164.396 171.07 164.17C170.957 163.939 170.789 163.756 170.566 163.619C170.344 163.482 170.074 163.414 169.758 163.414C169.379 163.414 169.062 163.488 168.809 163.636C168.559 163.781 168.371 163.984 168.246 164.246C168.121 164.508 168.059 164.808 168.059 165.148H166.975C166.975 164.668 167.08 164.228 167.291 163.83C167.502 163.431 167.814 163.115 168.229 162.881C168.643 162.642 169.152 162.523 169.758 162.523C170.297 162.523 170.758 162.619 171.141 162.81C171.523 162.998 171.816 163.263 172.02 163.607C172.227 163.947 172.33 164.345 172.33 164.802C172.33 165.052 172.287 165.306 172.201 165.564C172.119 165.818 172.004 166.072 171.855 166.326C171.711 166.58 171.541 166.83 171.346 167.076C171.154 167.322 170.949 167.564 170.73 167.802L168.445 170.281H172.723ZM179.238 166.226V167.527C179.238 168.226 179.176 168.816 179.051 169.297C178.926 169.777 178.746 170.164 178.512 170.457C178.277 170.75 177.994 170.963 177.662 171.095C177.334 171.224 176.963 171.289 176.549 171.289C176.221 171.289 175.918 171.248 175.641 171.166C175.363 171.084 175.113 170.953 174.891 170.773C174.672 170.59 174.484 170.351 174.328 170.058C174.172 169.765 174.053 169.41 173.971 168.992C173.889 168.574 173.848 168.086 173.848 167.527V166.226C173.848 165.527 173.91 164.941 174.035 164.469C174.164 163.996 174.346 163.617 174.58 163.332C174.814 163.043 175.096 162.836 175.424 162.711C175.756 162.586 176.127 162.523 176.537 162.523C176.869 162.523 177.174 162.564 177.451 162.646C177.732 162.724 177.982 162.851 178.201 163.027C178.42 163.199 178.605 163.429 178.758 163.719C178.914 164.004 179.033 164.353 179.115 164.767C179.197 165.181 179.238 165.668 179.238 166.226ZM178.148 167.703V166.045C178.148 165.662 178.125 165.326 178.078 165.037C178.035 164.744 177.971 164.494 177.885 164.287C177.799 164.08 177.689 163.912 177.557 163.783C177.428 163.654 177.277 163.56 177.105 163.502C176.938 163.439 176.748 163.408 176.537 163.408C176.279 163.408 176.051 163.457 175.852 163.554C175.652 163.648 175.484 163.799 175.348 164.006C175.215 164.213 175.113 164.484 175.043 164.82C174.973 165.156 174.938 165.564 174.938 166.045V167.703C174.938 168.086 174.959 168.424 175.002 168.717C175.049 169.01 175.117 169.263 175.207 169.478C175.297 169.689 175.406 169.863 175.535 170C175.664 170.136 175.812 170.238 175.98 170.304C176.152 170.367 176.342 170.398 176.549 170.398C176.814 170.398 177.047 170.347 177.246 170.246C177.445 170.144 177.611 169.986 177.744 169.771C177.881 169.552 177.982 169.273 178.049 168.933C178.115 168.59 178.148 168.179 178.148 167.703ZM186.223 170.281V171.172H180.639V170.392L183.434 167.281C183.777 166.898 184.043 166.574 184.23 166.308C184.422 166.039 184.555 165.799 184.629 165.588C184.707 165.373 184.746 165.154 184.746 164.931C184.746 164.65 184.688 164.396 184.57 164.17C184.457 163.939 184.289 163.756 184.066 163.619C183.844 163.482 183.574 163.414 183.258 163.414C182.879 163.414 182.562 163.488 182.309 163.636C182.059 163.781 181.871 163.984 181.746 164.246C181.621 164.508 181.559 164.808 181.559 165.148H180.475C180.475 164.668 180.58 164.228 180.791 163.83C181.002 163.431 181.314 163.115 181.729 162.881C182.143 162.642 182.652 162.523 183.258 162.523C183.797 162.523 184.258 162.619 184.641 162.81C185.023 162.998 185.316 163.263 185.52 163.607C185.727 163.947 185.83 164.345 185.83 164.802C185.83 165.052 185.787 165.306 185.701 165.564C185.619 165.818 185.504 166.072 185.355 166.326C185.211 166.58 185.041 166.83 184.846 167.076C184.654 167.322 184.449 167.564 184.23 167.802L181.945 170.281H186.223ZM188.754 167.111L187.887 166.888L188.314 162.64H192.691V163.642H189.234L188.977 165.963C189.133 165.873 189.33 165.789 189.568 165.711C189.811 165.633 190.088 165.594 190.4 165.594C190.795 165.594 191.148 165.662 191.461 165.799C191.773 165.931 192.039 166.123 192.258 166.373C192.48 166.623 192.65 166.924 192.768 167.275C192.885 167.627 192.943 168.019 192.943 168.453C192.943 168.863 192.887 169.24 192.773 169.584C192.664 169.927 192.498 170.228 192.275 170.486C192.053 170.74 191.771 170.937 191.432 171.078C191.096 171.219 190.699 171.289 190.242 171.289C189.898 171.289 189.572 171.242 189.264 171.148C188.959 171.051 188.686 170.904 188.443 170.709C188.205 170.51 188.01 170.263 187.857 169.97C187.709 169.674 187.615 169.326 187.576 168.927H188.607C188.654 169.248 188.748 169.517 188.889 169.736C189.029 169.955 189.213 170.121 189.439 170.234C189.67 170.344 189.938 170.398 190.242 170.398C190.5 170.398 190.729 170.353 190.928 170.263C191.127 170.174 191.295 170.045 191.432 169.877C191.568 169.709 191.672 169.506 191.742 169.267C191.816 169.029 191.854 168.761 191.854 168.465C191.854 168.195 191.816 167.945 191.742 167.715C191.668 167.484 191.557 167.283 191.408 167.111C191.264 166.939 191.086 166.806 190.875 166.713C190.664 166.615 190.422 166.566 190.148 166.566C189.785 166.566 189.51 166.615 189.322 166.713C189.139 166.81 188.949 166.943 188.754 167.111ZM194.268 170.597C194.268 170.414 194.324 170.26 194.438 170.135C194.555 170.006 194.723 169.941 194.941 169.941C195.16 169.941 195.326 170.006 195.439 170.135C195.557 170.26 195.615 170.414 195.615 170.597C195.615 170.777 195.557 170.929 195.439 171.054C195.326 171.179 195.16 171.242 194.941 171.242C194.723 171.242 194.555 171.179 194.438 171.054C194.324 170.929 194.268 170.777 194.268 170.597ZM203.713 163.396L200.889 171.172H199.734L202.986 162.64H203.73L203.713 163.396ZM206.08 171.172L203.25 163.396L203.232 162.64H203.977L207.24 171.172H206.08ZM205.934 168.013V168.939H201.141V168.013H205.934ZM209.396 162.172V171.172H208.307V162.172H209.396ZM212.314 162.172V171.172H211.225V162.172H212.314ZM218.115 165.828V171.172H217.031V164.832H218.086L218.115 165.828ZM220.096 164.797L220.09 165.804C220 165.785 219.914 165.773 219.832 165.769C219.754 165.761 219.664 165.758 219.562 165.758C219.312 165.758 219.092 165.797 218.9 165.875C218.709 165.953 218.547 166.062 218.414 166.203C218.281 166.344 218.176 166.511 218.098 166.707C218.023 166.898 217.975 167.109 217.951 167.34L217.646 167.515C217.646 167.133 217.684 166.773 217.758 166.437C217.836 166.101 217.955 165.804 218.115 165.547C218.275 165.285 218.479 165.082 218.725 164.937C218.975 164.789 219.271 164.715 219.615 164.715C219.693 164.715 219.783 164.724 219.885 164.744C219.986 164.76 220.057 164.777 220.096 164.797ZM222.275 164.832V171.172H221.186V164.832H222.275ZM221.104 163.15C221.104 162.974 221.156 162.826 221.262 162.705C221.371 162.584 221.531 162.523 221.742 162.523C221.949 162.523 222.107 162.584 222.217 162.705C222.33 162.826 222.387 162.974 222.387 163.15C222.387 163.318 222.33 163.463 222.217 163.584C222.107 163.701 221.949 163.76 221.742 163.76C221.531 163.76 221.371 163.701 221.262 163.584C221.156 163.463 221.104 163.318 221.104 163.15ZM228.123 164.832H229.107V171.037C229.107 171.595 228.994 172.072 228.768 172.467C228.541 172.861 228.225 173.16 227.818 173.363C227.416 173.57 226.951 173.674 226.424 173.674C226.205 173.674 225.947 173.638 225.65 173.568C225.357 173.502 225.068 173.386 224.783 173.222C224.502 173.062 224.266 172.845 224.074 172.572L224.643 171.927C224.908 172.248 225.186 172.47 225.475 172.595C225.768 172.72 226.057 172.783 226.342 172.783C226.686 172.783 226.982 172.719 227.232 172.59C227.482 172.461 227.676 172.269 227.812 172.015C227.953 171.765 228.023 171.457 228.023 171.09V166.226L228.123 164.832ZM223.758 168.072V167.949C223.758 167.465 223.814 167.025 223.928 166.631C224.045 166.232 224.211 165.89 224.426 165.605C224.645 165.32 224.908 165.101 225.217 164.949C225.525 164.793 225.873 164.715 226.26 164.715C226.658 164.715 227.006 164.785 227.303 164.926C227.604 165.062 227.857 165.263 228.064 165.529C228.275 165.791 228.441 166.107 228.562 166.478C228.684 166.849 228.768 167.269 228.814 167.738V168.277C228.771 168.742 228.688 169.16 228.562 169.531C228.441 169.902 228.275 170.219 228.064 170.48C227.857 170.742 227.604 170.943 227.303 171.084C227.002 171.22 226.65 171.289 226.248 171.289C225.869 171.289 225.525 171.209 225.217 171.049C224.912 170.888 224.65 170.664 224.432 170.375C224.213 170.086 224.045 169.746 223.928 169.355C223.814 168.961 223.758 168.533 223.758 168.072ZM224.842 167.949V168.072C224.842 168.388 224.873 168.685 224.936 168.963C225.002 169.24 225.102 169.484 225.234 169.695C225.371 169.906 225.545 170.072 225.756 170.193C225.967 170.31 226.219 170.369 226.512 170.369C226.871 170.369 227.168 170.293 227.402 170.14C227.637 169.988 227.822 169.787 227.959 169.537C228.1 169.287 228.209 169.015 228.287 168.722V167.31C228.244 167.095 228.178 166.888 228.088 166.689C228.002 166.486 227.889 166.306 227.748 166.15C227.611 165.99 227.441 165.863 227.238 165.769C227.035 165.676 226.797 165.629 226.523 165.629C226.227 165.629 225.971 165.691 225.756 165.816C225.545 165.937 225.371 166.105 225.234 166.32C225.102 166.531 225.002 166.777 224.936 167.058C224.873 167.336 224.842 167.633 224.842 167.949ZM231.838 162.172V171.172H230.754V162.172H231.838ZM231.58 167.761L231.129 167.744C231.133 167.31 231.197 166.91 231.322 166.543C231.447 166.172 231.623 165.849 231.85 165.576C232.076 165.302 232.346 165.092 232.658 164.943C232.975 164.791 233.324 164.715 233.707 164.715C234.02 164.715 234.301 164.758 234.551 164.844C234.801 164.926 235.014 165.058 235.189 165.242C235.369 165.426 235.506 165.664 235.6 165.957C235.693 166.246 235.74 166.599 235.74 167.017V171.172H234.65V167.006C234.65 166.674 234.602 166.408 234.504 166.209C234.406 166.006 234.264 165.859 234.076 165.769C233.889 165.676 233.658 165.629 233.385 165.629C233.115 165.629 232.869 165.685 232.646 165.799C232.428 165.912 232.238 166.068 232.078 166.267C231.922 166.467 231.799 166.695 231.709 166.953C231.623 167.207 231.58 167.476 231.58 167.761ZM240.018 164.832V165.664H236.59V164.832H240.018ZM237.75 163.291H238.834V169.601C238.834 169.816 238.867 169.978 238.934 170.088C239 170.197 239.086 170.269 239.191 170.304C239.297 170.34 239.41 170.357 239.531 170.357C239.621 170.357 239.715 170.349 239.812 170.334C239.914 170.314 239.99 170.299 240.041 170.287L240.047 171.172C239.961 171.199 239.848 171.224 239.707 171.248C239.57 171.275 239.404 171.289 239.209 171.289C238.943 171.289 238.699 171.236 238.477 171.131C238.254 171.025 238.076 170.849 237.943 170.603C237.814 170.353 237.75 170.017 237.75 169.595V163.291ZM244.98 169.49C244.98 169.334 244.945 169.189 244.875 169.056C244.809 168.92 244.67 168.797 244.459 168.687C244.252 168.574 243.939 168.476 243.521 168.394C243.17 168.32 242.852 168.232 242.566 168.131C242.285 168.029 242.045 167.906 241.846 167.761C241.65 167.617 241.5 167.447 241.395 167.252C241.289 167.056 241.236 166.828 241.236 166.566C241.236 166.316 241.291 166.08 241.4 165.857C241.514 165.635 241.672 165.437 241.875 165.265C242.082 165.094 242.33 164.959 242.619 164.861C242.908 164.763 243.23 164.715 243.586 164.715C244.094 164.715 244.527 164.804 244.887 164.984C245.246 165.164 245.521 165.404 245.713 165.705C245.904 166.002 246 166.332 246 166.695H244.916C244.916 166.519 244.863 166.349 244.758 166.185C244.656 166.017 244.506 165.879 244.307 165.769C244.111 165.66 243.871 165.605 243.586 165.605C243.285 165.605 243.041 165.652 242.854 165.746C242.67 165.836 242.535 165.951 242.449 166.092C242.367 166.232 242.326 166.381 242.326 166.537C242.326 166.654 242.346 166.76 242.385 166.853C242.428 166.943 242.502 167.027 242.607 167.105C242.713 167.179 242.861 167.25 243.053 167.316C243.244 167.383 243.488 167.449 243.785 167.515C244.305 167.633 244.732 167.773 245.068 167.937C245.404 168.101 245.654 168.302 245.818 168.541C245.982 168.779 246.064 169.068 246.064 169.408C246.064 169.685 246.006 169.939 245.889 170.17C245.775 170.4 245.609 170.599 245.391 170.767C245.176 170.931 244.918 171.06 244.617 171.154C244.32 171.244 243.986 171.289 243.615 171.289C243.057 171.289 242.584 171.189 242.197 170.99C241.811 170.791 241.518 170.533 241.318 170.217C241.119 169.9 241.02 169.566 241.02 169.215H242.109C242.125 169.511 242.211 169.748 242.367 169.924C242.523 170.095 242.715 170.219 242.941 170.293C243.168 170.363 243.393 170.398 243.615 170.398C243.912 170.398 244.16 170.359 244.359 170.281C244.562 170.203 244.717 170.095 244.822 169.959C244.928 169.822 244.98 169.666 244.98 169.49ZM251.549 165.828V171.172H250.465V164.832H251.52L251.549 165.828ZM253.529 164.797L253.523 165.804C253.434 165.785 253.348 165.773 253.266 165.769C253.188 165.761 253.098 165.758 252.996 165.758C252.746 165.758 252.525 165.797 252.334 165.875C252.143 165.953 251.98 166.062 251.848 166.203C251.715 166.344 251.609 166.511 251.531 166.707C251.457 166.898 251.408 167.109 251.385 167.34L251.08 167.515C251.08 167.133 251.117 166.773 251.191 166.437C251.27 166.101 251.389 165.804 251.549 165.547C251.709 165.285 251.912 165.082 252.158 164.937C252.408 164.789 252.705 164.715 253.049 164.715C253.127 164.715 253.217 164.724 253.318 164.744C253.42 164.76 253.49 164.777 253.529 164.797ZM257.045 171.289C256.604 171.289 256.203 171.215 255.844 171.066C255.488 170.914 255.182 170.701 254.924 170.427C254.67 170.154 254.475 169.83 254.338 169.455C254.201 169.08 254.133 168.67 254.133 168.224V167.978C254.133 167.463 254.209 167.004 254.361 166.601C254.514 166.195 254.721 165.851 254.982 165.57C255.244 165.289 255.541 165.076 255.873 164.931C256.205 164.787 256.549 164.715 256.904 164.715C257.357 164.715 257.748 164.793 258.076 164.949C258.408 165.105 258.68 165.324 258.891 165.605C259.102 165.883 259.258 166.211 259.359 166.59C259.461 166.965 259.512 167.375 259.512 167.82V168.306H254.777V167.422H258.428V167.34C258.412 167.058 258.354 166.785 258.252 166.519C258.154 166.254 257.998 166.035 257.783 165.863C257.568 165.691 257.275 165.605 256.904 165.605C256.658 165.605 256.432 165.658 256.225 165.763C256.018 165.865 255.84 166.017 255.691 166.22C255.543 166.424 255.428 166.672 255.346 166.965C255.264 167.258 255.223 167.595 255.223 167.978V168.224C255.223 168.525 255.264 168.808 255.346 169.074C255.432 169.336 255.555 169.566 255.715 169.765C255.879 169.965 256.076 170.121 256.307 170.234C256.541 170.347 256.807 170.404 257.104 170.404C257.486 170.404 257.811 170.326 258.076 170.17C258.342 170.013 258.574 169.804 258.773 169.543L259.43 170.064C259.293 170.271 259.119 170.469 258.908 170.656C258.697 170.844 258.438 170.996 258.129 171.113C257.824 171.23 257.463 171.289 257.045 171.289ZM264.469 169.49C264.469 169.334 264.434 169.189 264.363 169.056C264.297 168.92 264.158 168.797 263.947 168.687C263.74 168.574 263.428 168.476 263.01 168.394C262.658 168.32 262.34 168.232 262.055 168.131C261.773 168.029 261.533 167.906 261.334 167.761C261.139 167.617 260.988 167.447 260.883 167.252C260.777 167.056 260.725 166.828 260.725 166.566C260.725 166.316 260.779 166.08 260.889 165.857C261.002 165.635 261.16 165.437 261.363 165.265C261.57 165.094 261.818 164.959 262.107 164.861C262.396 164.763 262.719 164.715 263.074 164.715C263.582 164.715 264.016 164.804 264.375 164.984C264.734 165.164 265.01 165.404 265.201 165.705C265.393 166.002 265.488 166.332 265.488 166.695H264.404C264.404 166.519 264.352 166.349 264.246 166.185C264.145 166.017 263.994 165.879 263.795 165.769C263.6 165.66 263.359 165.605 263.074 165.605C262.773 165.605 262.529 165.652 262.342 165.746C262.158 165.836 262.023 165.951 261.938 166.092C261.855 166.232 261.814 166.381 261.814 166.537C261.814 166.654 261.834 166.76 261.873 166.853C261.916 166.943 261.99 167.027 262.096 167.105C262.201 167.179 262.35 167.25 262.541 167.316C262.732 167.383 262.977 167.449 263.273 167.515C263.793 167.633 264.221 167.773 264.557 167.937C264.893 168.101 265.143 168.302 265.307 168.541C265.471 168.779 265.553 169.068 265.553 169.408C265.553 169.685 265.494 169.939 265.377 170.17C265.264 170.4 265.098 170.599 264.879 170.767C264.664 170.931 264.406 171.06 264.105 171.154C263.809 171.244 263.475 171.289 263.104 171.289C262.545 171.289 262.072 171.189 261.686 170.99C261.299 170.791 261.006 170.533 260.807 170.217C260.607 169.9 260.508 169.566 260.508 169.215H261.598C261.613 169.511 261.699 169.748 261.855 169.924C262.012 170.095 262.203 170.219 262.43 170.293C262.656 170.363 262.881 170.398 263.104 170.398C263.4 170.398 263.648 170.359 263.848 170.281C264.051 170.203 264.205 170.095 264.311 169.959C264.416 169.822 264.469 169.666 264.469 169.49ZM269.607 171.289C269.166 171.289 268.766 171.215 268.406 171.066C268.051 170.914 267.744 170.701 267.486 170.427C267.232 170.154 267.037 169.83 266.9 169.455C266.764 169.08 266.695 168.67 266.695 168.224V167.978C266.695 167.463 266.771 167.004 266.924 166.601C267.076 166.195 267.283 165.851 267.545 165.57C267.807 165.289 268.104 165.076 268.436 164.931C268.768 164.787 269.111 164.715 269.467 164.715C269.92 164.715 270.311 164.793 270.639 164.949C270.971 165.105 271.242 165.324 271.453 165.605C271.664 165.883 271.82 166.211 271.922 166.59C272.023 166.965 272.074 167.375 272.074 167.82V168.306H267.34V167.422H270.99V167.34C270.975 167.058 270.916 166.785 270.814 166.519C270.717 166.254 270.561 166.035 270.346 165.863C270.131 165.691 269.838 165.605 269.467 165.605C269.221 165.605 268.994 165.658 268.787 165.763C268.58 165.865 268.402 166.017 268.254 166.22C268.105 166.424 267.99 166.672 267.908 166.965C267.826 167.258 267.785 167.595 267.785 167.978V168.224C267.785 168.525 267.826 168.808 267.908 169.074C267.994 169.336 268.117 169.566 268.277 169.765C268.441 169.965 268.639 170.121 268.869 170.234C269.104 170.347 269.369 170.404 269.666 170.404C270.049 170.404 270.373 170.326 270.639 170.17C270.904 170.013 271.137 169.804 271.336 169.543L271.992 170.064C271.855 170.271 271.682 170.469 271.471 170.656C271.26 170.844 271 170.996 270.691 171.113C270.387 171.23 270.025 171.289 269.607 171.289ZM274.424 165.828V171.172H273.34V164.832H274.395L274.424 165.828ZM276.404 164.797L276.398 165.804C276.309 165.785 276.223 165.773 276.141 165.769C276.062 165.761 275.973 165.758 275.871 165.758C275.621 165.758 275.4 165.797 275.209 165.875C275.018 165.953 274.855 166.062 274.723 166.203C274.59 166.344 274.484 166.511 274.406 166.707C274.332 166.898 274.283 167.109 274.26 167.34L273.955 167.515C273.955 167.133 273.992 166.773 274.066 166.437C274.145 166.101 274.264 165.804 274.424 165.547C274.584 165.285 274.787 165.082 275.033 164.937C275.283 164.789 275.58 164.715 275.924 164.715C276.002 164.715 276.092 164.724 276.193 164.744C276.295 164.76 276.365 164.777 276.404 164.797ZM279.439 170.193L281.174 164.832H282.281L280.002 171.172H279.275L279.439 170.193ZM277.992 164.832L279.779 170.222L279.902 171.172H279.176L276.879 164.832H277.992ZM285.873 171.289C285.432 171.289 285.031 171.215 284.672 171.066C284.316 170.914 284.01 170.701 283.752 170.427C283.498 170.154 283.303 169.83 283.166 169.455C283.029 169.08 282.961 168.67 282.961 168.224V167.978C282.961 167.463 283.037 167.004 283.189 166.601C283.342 166.195 283.549 165.851 283.811 165.57C284.072 165.289 284.369 165.076 284.701 164.931C285.033 164.787 285.377 164.715 285.732 164.715C286.186 164.715 286.576 164.793 286.904 164.949C287.236 165.105 287.508 165.324 287.719 165.605C287.93 165.883 288.086 166.211 288.188 166.59C288.289 166.965 288.34 167.375 288.34 167.82V168.306H283.605V167.422H287.256V167.34C287.24 167.058 287.182 166.785 287.08 166.519C286.982 166.254 286.826 166.035 286.611 165.863C286.396 165.691 286.104 165.605 285.732 165.605C285.486 165.605 285.26 165.658 285.053 165.763C284.846 165.865 284.668 166.017 284.52 166.22C284.371 166.424 284.256 166.672 284.174 166.965C284.092 167.258 284.051 167.595 284.051 167.978V168.224C284.051 168.525 284.092 168.808 284.174 169.074C284.26 169.336 284.383 169.566 284.543 169.765C284.707 169.965 284.904 170.121 285.135 170.234C285.369 170.347 285.635 170.404 285.932 170.404C286.314 170.404 286.639 170.326 286.904 170.17C287.17 170.013 287.402 169.804 287.602 169.543L288.258 170.064C288.121 170.271 287.947 170.469 287.736 170.656C287.525 170.844 287.266 170.996 286.957 171.113C286.652 171.23 286.291 171.289 285.873 171.289ZM293.602 169.941V162.172H294.691V171.172H293.695L293.602 169.941ZM289.336 168.072V167.949C289.336 167.465 289.395 167.025 289.512 166.631C289.633 166.232 289.803 165.89 290.021 165.605C290.244 165.32 290.508 165.101 290.812 164.949C291.121 164.793 291.465 164.715 291.844 164.715C292.242 164.715 292.59 164.785 292.887 164.926C293.188 165.062 293.441 165.263 293.648 165.529C293.859 165.791 294.025 166.107 294.146 166.478C294.268 166.849 294.352 167.269 294.398 167.738V168.277C294.355 168.742 294.271 169.16 294.146 169.531C294.025 169.902 293.859 170.219 293.648 170.48C293.441 170.742 293.188 170.943 292.887 171.084C292.586 171.22 292.234 171.289 291.832 171.289C291.461 171.289 291.121 171.209 290.812 171.049C290.508 170.888 290.244 170.664 290.021 170.375C289.803 170.086 289.633 169.746 289.512 169.355C289.395 168.961 289.336 168.533 289.336 168.072ZM290.426 167.949V168.072C290.426 168.388 290.457 168.685 290.52 168.963C290.586 169.24 290.688 169.484 290.824 169.695C290.961 169.906 291.135 170.072 291.346 170.193C291.557 170.31 291.809 170.369 292.102 170.369C292.461 170.369 292.756 170.293 292.986 170.14C293.221 169.988 293.408 169.787 293.549 169.537C293.689 169.287 293.799 169.015 293.877 168.722V167.31C293.83 167.095 293.762 166.888 293.672 166.689C293.586 166.486 293.473 166.306 293.332 166.15C293.195 165.99 293.025 165.863 292.822 165.769C292.623 165.676 292.387 165.629 292.113 165.629C291.816 165.629 291.561 165.691 291.346 165.816C291.135 165.937 290.961 166.105 290.824 166.32C290.688 166.531 290.586 166.777 290.52 167.058C290.457 167.336 290.426 167.633 290.426 167.949ZM296.396 170.597C296.396 170.414 296.453 170.26 296.566 170.135C296.684 170.006 296.852 169.941 297.07 169.941C297.289 169.941 297.455 170.006 297.568 170.135C297.686 170.26 297.744 170.414 297.744 170.597C297.744 170.777 297.686 170.929 297.568 171.054C297.455 171.179 297.289 171.242 297.07 171.242C296.852 171.242 296.684 171.179 296.566 171.054C296.453 170.929 296.396 170.777 296.396 170.597Z" fill="white"/>
</svg>
